HIERARCHY
ROOT pelvis
{
  OFFSET 0 100 0
  CHANNELS 6 Xposition Yposition Zposition Zrotation Xrotation Yrotation
  JOINT pelvis_right_femur
  {
    OFFSET -10.78128 -3.44521 -0.5502486
    CHANNELS 3 Zrotation Xrotation Yrotation
    JOINT right_femur_tibia
    {
      OFFSET -0.8047443 -44.0398 -0.1307829
      CHANNELS 3 Zrotation Xrotation Yrotation
      JOINT right_tibia_foot
      {
        OFFSET 3.006224 -47.83518 -5
        CHANNELS 3 Zrotation Xrotation Yrotation
        End Site
        {
          OFFSET 0 -5 15
        }
      }
    }
  }
  JOINT pelvis_left_femur
  {
    OFFSET 10.78128 -3.44521 -0.5502486
    CHANNELS 3 Zrotation Xrotation Yrotation
    JOINT left_femur_tibia
    {
      OFFSET 0.8047443 -44.0398 -0.1307829
      CHANNELS 3 Zrotation Xrotation Yrotation
      JOINT left_tibia_foot
      {
        OFFSET -4.370144 -48.10324 -4.275266
        CHANNELS 3 Zrotation Xrotation Yrotation
        End Site
        {
          OFFSET 0 -5 15
        }
      }
    }
  }
  JOINT pelvis_spine1
  {
    OFFSET 0 6.468898 -3.129235
    CHANNELS 3 Zrotation Xrotation Yrotation
    JOINT spine1
    {
      OFFSET 0 23.15396 4.99043
      CHANNELS 3 Zrotation Xrotation Yrotation
      JOINT spine2
      {
        OFFSET 0 20.79997 -5.064912
        CHANNELS 3 Zrotation Xrotation Yrotation
        JOINT neck
        {
          OFFSET 0 14.38658 9.616178
          CHANNELS 3 Zrotation Xrotation Yrotation
          End Site
          {
            OFFSET 0 20 0
          }
        }
      }
      JOINT right_manubrium
      {
        OFFSET -5.722621 16.35077 3.967754
        CHANNELS 3 Zrotation Xrotation Yrotation
        JOINT right_clavicle
        {
          OFFSET -13.16364 1.694482 -4.693211
          CHANNELS 3 Zrotation Xrotation Yrotation
          JOINT right_humerus
          {
            OFFSET -28.5034 -0.3100689 -2.792744
            CHANNELS 3 Zrotation Xrotation Yrotation
            JOINT right_radius
            {
              OFFSET -25.15693 0.02248979 -1.271978
              CHANNELS 3 Zrotation Xrotation Yrotation
              End Site
              {
                OFFSET -15 0 0
              }
            }
          }
        }
      }
      JOINT left_manubrium
      {
        OFFSET 5.722621 16.35077 3.967754
        CHANNELS 3 Zrotation Xrotation Yrotation
        JOINT left_clavicle
        {
          OFFSET 13.16364 1.694482 -4.693211
          CHANNELS 3 Zrotation Xrotation Yrotation
          JOINT left_humerus
          {
            OFFSET 29.39168 -1.063119 -2.237045
            CHANNELS 3 Zrotation Xrotation Yrotation
            JOINT left_radius
            {
              OFFSET 24.59957 -0.9528479 0.9047498
              CHANNELS 3 Zrotation Xrotation Yrotation
              End Site
              {
                OFFSET 15 -0 -0
              }
            }
          }
        }
      }
    }
  }
}
MOTION
Frames: 15
Frame Time: 0.0416666666667
39.62458 104.8817 240.4943 2.248487 -6.125483 6.162959 1.420178 10.40152 6.931601 -1.474845e-06 36.65368 1.191089e-05 4.221749 -10.59382 -2.967651 -3.731072 -14.54392 -9.661835 2.741151e-06 19.83801 -1.432896e-05 -7.943234 -11.43505 18.6959 -1.108148 -0.8253536 8.261983 -1.821216 9.31816 -3.122841 2.480107 21.27884 5.258007 2.529731 -16.61331 7.011514 2.106972 -21.11998 10.55494 82.28982 22.52807 -9.146366 -5.442754e-06 4.147096e-06 25.42003 -20.93874 9.974502 11.34572 4.90961 -15.00885 -2.691519 -94.8241 26.59395 26.2762 -1.957028e-06 1.726703e-06 -12.48787 -4.962327 6.413529 20.15078
41.36069 105.4114 246.6067 2.569304 -6.584037 6.555544 0.8101067 8.593515 6.925863 -6.705773e-06 43.41144 1.487332e-05 4.014474 -8.947691 -3.577836 -4.720746 -11.22993 -10.5812 5.611483e-06 21.03495 -1.773893e-05 -7.460593 -11.76033 18.51706 -1.434677 -1.019231 7.78379 -1.903775 9.337338 -3.335939 2.479858 21.62307 5.388026 2.535298 -16.43537 7.18403 2.384642 -20.26781 10.43359 83.00973 22.76889 -10.20647 -4.777627e-06 4.672724e-06 23.8539 -20.50642 9.759543 10.71117 4.629436 -15.09546 -2.907412 -93.74032 27.18368 24.83116 -2.082856e-06 3.082745e-06 -12.61055 -4.694831 6.699481 19.92627
43.02408 106.2399 252.3841 2.870205 -7.284316 7.19622 0.3017292 5.220043 6.827712 -1.440671e-05 49.98238 1.790723e-05 3.555866 -7.706714 -4.538832 -5.440347 -7.349349 -11.32562 1.260922e-05 21.30032 -1.763273e-05 -6.925909 -12.57392 18.1483 -1.750707 -0.8221651 7.037337 -1.922288 9.39076 -3.721152 2.4622 22.07144 5.498879 2.445947 -16.14394 7.394945 2.61916 -19.3789 10.33321 84.11576 23.08558 -11.46393 -3.716514e-06 4.918324e-06 22.19197 -19.9635 9.749507 10.04105 4.375722 -15.39226 -3.304736 -92.37951 27.92694 22.78101 -1.23127e-06 4.22625e-06 -13.14448 -4.393337 6.978462 19.6453
44.56104 107.2084 257.7161 3.013033 -7.873016 8.020053 0.1264258 0.6000631 6.639863 -2.09127e-05 54.20736 1.990316e-05 2.721257 -7.371936 -5.662378 -5.753687 -3.070616 -11.87841 1.90859e-05 21.00781 -1.505205e-05 -6.424058 -13.56541 17.54709 -1.949869 -0.3954847 6.093643 -1.747565 9.358386 -4.298045 2.430241 22.4626 5.521124 2.246472 -15.8904 7.594951 2.801082 -18.47294 10.20352 85.2199 23.5961 -12.85616 -2.354697e-06 4.71213e-06 20.44457 -19.01823 9.967358 9.254852 4.186478 -15.84993 -3.701017 -90.69246 28.69701 20.28922 2.995833e-07 5.728581e-06 -14.0611 -3.995554 7.351255 19.14946
46.00577 108.1123 262.8341 3.009258 -8.158153 8.971606 0.1983422 -4.28566 6.201455 -2.379211e-05 55.20311 1.960637e-05 1.946749 -7.24167 -6.707907 -5.713541 1.018752 -12.02869 2.278051e-05 19.65357 -1.315229e-05 -6.33013 -14.82912 16.7236 -1.993104 0.07536829 5.16024 -1.495962 9.199083 -4.897003 2.445599 22.75081 5.499258 2.036345 -15.74494 7.790152 2.727074 -17.70342 10.00981 86.55333 23.83754 -14.23369 -8.389762e-07 4.120107e-06 18.93216 -18.3305 10.27994 8.69551 4.239861 -16.43157 -4.036049 -89.26833 29.23301 17.78918 1.16234e-06 6.351322e-06 -15.37657 -3.623063 7.644816 18.65789
47.31236 108.6657 267.5947 2.989793 -8.299148 9.952645 0.4515652 -9.294406 5.80964 -2.374635e-05 52.71354 1.563778e-05 1.11565 -7.570248 -7.58185 -5.497712 4.570128 -12.15718 2.806554e-05 17.45296 -5.824537e-06 -6.008313 -16.33334 16.36717 -2.031101 0.6422765 4.295288 -1.12673 9.046908 -5.450836 2.441697 22.9035 5.491308 1.89013 -15.62683 7.923362 2.593402 -17.04744 9.876733 87.21451 24.05536 -15.37842 9.270137e-08 3.493813e-06 17.45498 -17.55249 10.4539 8.148985 4.535272 -17.13438 -4.327474 -87.58906 29.50645 15.11804 2.830433e-06 5.897463e-06 -16.92068 -3.077894 8.104689 17.82693
48.50531 108.7729 272.2871 2.904626 -8.105635 10.86758 0.7753987 -13.76054 5.263369 -2.027782e-05 47.13666 1.04702e-05 0.5068872 -8.026995 -8.283706 -5.182537 7.833264 -12.0198 2.896989e-05 15.13794 -8.077357e-07 -6.03855 -17.87086 16.04695 -2.02344 1.03476 3.578355 -0.7152015 8.727779 -5.946019 2.495697 23.00274 5.456533 1.800907 -15.5575 8.020927 2.286368 -16.37458 9.660499 87.87198 24.08373 -16.52097 9.221281e-07 2.759648e-06 15.98075 -17.06044 10.55205 7.745848 5.08114 -17.90139 -4.444684 -86.12671 29.56014 12.36632 3.56115e-06 4.856839e-06 -18.81001 -2.536821 8.516463 16.97046
49.61735 108.428 277.1708 2.819213 -7.657679 11.66288 1.042514 -17.31718 4.603168 -1.52441e-05 39.75146 6.196201e-06 0.1272493 -8.498645 -8.801724 -4.925912 10.76541 -11.70728 2.500069e-05 13.40185 4.905654e-07 -6.294358 -19.25745 15.83411 -2.041894 1.163387 3.060578 -0.3115068 8.294428 -6.368872 2.593712 23.11598 5.409735 1.783587 -15.51327 8.078073 1.890842 -15.64351 9.385812 88.57685 24.01599 -17.71761 1.667405e-06 2.04563e-06 14.42678 -16.85676 10.54782 7.431799 5.779285 -18.70515 -4.393088 -84.91685 29.45535 9.611926 3.220107e-06 3.530619e-06 -20.93343 -1.994535 8.904454 16.11358
50.60052 107.6187 282.1017 2.783971 -7.230612 12.30955 1.256797 -20.51965 4.008615 -1.152348e-05 32.18747 2.992132e-06 -0.3750654 -9.212414 -9.160886 -4.766767 13.33065 -11.53828 2.24021e-05 12.33939 2.871794e-06 -6.266749 -20.47746 15.91544 -2.121749 1.258181 2.631683 0.09475808 7.892124 -6.730941 2.650419 23.26799 5.398148 1.811091 -15.45794 8.102876 1.584861 -14.8778 9.169804 88.92295 24.10048 -18.86341 1.972112e-06 1.642925e-06 12.71339 -16.48675 10.37471 6.984018 6.45963 -19.5205 -4.308796 -83.54685 29.29191 6.805523 3.376673e-06 2.365511e-06 -23.05618 -1.29623 9.441131 15.04066
51.47316 106.5294 287.1552 2.695216 -6.711783 12.801 1.407626 -22.81175 3.378375 -8.422594e-06 25.63483 1.612668e-06 -1.047291 -9.973207 -9.313365 -4.679178 15.50506 -11.39619 1.78362e-05 12.5046 6.856712e-07 -6.269286 -21.13113 15.84778 -2.178764 1.164017 2.299108 0.4572133 7.449367 -7.033646 2.688561 23.45491 5.367866 1.832618 -15.48853 8.106854 1.331562 -14.09306 8.936728 89.2358 24.32555 -19.95317 2.383656e-06 1.257155e-06 10.96022 -16.01749 10.15593 6.47496 6.970124 -20.21043 -4.135879 -82.31767 29.15006 4.364983 2.958376e-06 1.908494e-06 -24.88669 -0.5501228 10.03086 13.9519
52.26445 105.3708 292.3684 2.554716 -6.300619 13.18813 1.540012 -24.23774 2.886187 -7.095771e-06 21.53835 1.780221e-06 -1.845901 -10.60916 -9.426382 -4.614298 17.39759 -11.35738 1.369585e-05 13.80183 -4.944771e-06 -6.390231 -21.14583 15.54803 -2.162686 0.9734319 1.993585 0.7399228 7.04193 -7.273442 2.733754 23.65819 5.280798 1.793947 -15.57012 8.118958 1.161212 -13.37456 8.70394 89.62865 24.57934 -20.87995 3.05615e-06 7.216871e-07 9.399684 -15.41588 9.997679 5.931917 7.197106 -20.64789 -3.950037 -81.37902 29.13053 2.575628 2.247403e-06 2.271325e-06 -26.02753 0.08867918 10.58752 13.06422
53.07085 104.455 297.9533 2.37739 -6.082998 13.54427 1.65515 -24.39351 2.61257 -7.693742e-06 20.96919 3.723214e-06 -2.532088 -10.59044 -9.618493 -4.59351 19.14372 -11.37656 9.132567e-06 16.44022 -1.513713e-05 -6.945713 -20.41295 14.9302 -2.047068 0.6385341 1.717166 0.8852523 6.691963 -7.416586 2.855351 23.89617 5.10701 1.694762 -15.70193 8.171245 1.053349 -12.74867 8.444407 90.46798 24.65063 -21.61218 4.260367e-06 -2.557414e-07 8.197048 -14.92175 9.988366 5.496249 7.10492 -20.71159 -3.754717 -81.17714 29.34312 1.775265 6.850483e-07 3.340182e-06 -26.12473 0.3827473 10.96381 12.72816
53.91129 103.9866 303.8456 2.190688 -6.178368 13.86536 2.012662 -23.37891 2.823254 -9.347608e-06 22.68952 5.855303e-06 -3.265344 -10.22058 -9.859747 -4.504458 20.12787 -11.53024 5.467994e-06 20.76443 -2.262425e-05 -7.564721 -18.91089 14.44971 -1.819858 0.338567 1.526585 0.9624468 6.555251 -7.427051 3.017756 24.06665 4.848845 1.567635 -15.85826 8.202641 1.059125 -12.33292 8.279118 91.1212 24.65099 -21.93115 5.376295e-06 -1.497861e-06 7.421943 -14.3052 10.06744 5.080897 6.720102 -20.43436 -3.599658 -81.48806 29.65365 2.054869 -6.618625e-07 4.570936e-06 -25.08116 0.4281445 11.26682 12.73259
54.79483 104.091 309.9997 2.012885 -6.494488 14.09473 2.658449 -21.17742 3.4299 -9.633742e-06 25.01612 7.658941e-06 -3.983096 -9.815567 -10.05445 -4.343273 19.94111 -11.69205 -2.76291e-07 26.99778 -2.542166e-05 -8.299865 -16.82586 14.27955 -1.489373 0.1126661 1.536382 0.9911175 6.594341 -7.271313 3.2254 24.22735 4.539625 1.46623 -16.04193 8.206288 1.119857 -12.1329 8.232326 91.62659 24.57676 -21.89279 6.01638e-06 -2.715416e-06 7.080136 -13.68439 10.15439 4.710497 6.203331 -19.93328 -3.430183 -82.50255 30.04074 3.307256 -1.812819e-06 5.681936e-06 -23.28985 0.2479317 11.498 13.03394
55.64409 104.6923 316.0594 2.028791 -7.134769 14.16712 3.37941 -17.75911 4.32382 -9.444259e-06 27.06607 7.49772e-06 -4.76131 -9.844682 -10.0289 -4.170578 17.64782 -11.86752 -4.592917e-06 34.26048 -1.849899e-05 -8.628789 -14.56128 14.96969 -1.220156 0.1639979 1.848871 0.9409291 6.893884 -6.872439 3.389565 24.47752 4.291894 1.469532 -16.13241 8.144598 1.256391 -12.2423 8.419072 91.49355 24.63476 -21.25693 5.649979e-06 -3.443374e-06 7.207455 -13.15784 10.03539 4.421089 5.6626 -19.35903 -3.321397 -83.94132 30.41828 5.24231 -1.722058e-06 5.554143e-06 -21.06101 0.03144663 11.77329 13.35764
